# xmcd
#
# Track frame offsets:
#	150
#	16430
#	32347
#	47215
#	63147
#	81387
#	93867
#	107792
#	123562
#	146437
#	157855
#	177630
#	194040
#
# Disc length: 2744 seconds
#
# Revision: 4
# Processed by: cddbd v1.5.2PL0 Copyright (c) Steve Scherf et al.
# Submitted via: audiograbber 1.83.01
#
DISCID=ad0ab60d
DTITLE=John Williamson - Boomerang Café
DYEAR=1988
DGENRE=Country
TTITLE0=It's A Way Of Life
TTITLE1=Old Man Verandah
TTITLE2=Sail The Nullarbor
TTITLE3=Westown
TTITLE4=Welcome All To Broome
TTITLE5=Crocodile Roll
TTITLE6=The March For Australia (''A New Beginning'')
TTITLE7=The Boomerang Café
TTITLE8=The Truckie's Wife
TTITLE9=My Dad Snores
TTITLE10=You're A Miner
TTITLE11=The Only One
TTITLE12=One More For The Road
EXTD=ID3G:   2
EXTT0=
EXTT1=
EXTT2=
EXTT3=
EXTT4=
EXTT5=
EXTT6=
EXTT7=
EXTT8=
EXTT9=
EXTT10=
EXTT11=
EXTT12=
PLAYORDER=
